<svg xmlns="http://www.w3.org/2000/svg" version="1.1" xmlns:xlink="http://www.w3.org/1999/xlink" xmlns:svgjs="http://svgjs.com/svgjs" width="1440" height="900" preserveAspectRatio="none" viewBox="0 0 1440 900"><g mask="url(&quot;#SvgjsMask1036&quot;)" fill="none"><rect width="1440" height="900" x="0" y="0" fill="rgba(17, 34, 64, 1)"></rect><circle r="13.45" cx="179.98" cy="540.5" filter="url(#SvgjsFilter1037)" fill="rgba(154, 205, 50, 0.11)"></circle><circle r="11.72" cx="283.08000000000004" cy="19.26" filter="url(#SvgjsFilter1037)" fill="rgba(154, 205, 50, 0.11)"></circle><circle r="14.06" cx="877.55" cy="158.73" filter="url(#SvgjsFilter1037)" fill="rgba(154, 205, 50, 0.11)"></circle><circle r="10.19" cx="17.74" cy="321.76" filter="url(#SvgjsFilter1037)" fill="rgba(154, 205, 50, 0.11)"></circle><circle r="14.915" cx="347.665" cy="430.805" filter="url(#SvgjsFilter1037)" fill="rgba(154, 205, 50, 0.11)"></circle><circle r="14.57" cx="652.34" cy="797.1700000000001" filter="url(#SvgjsFilter1037)" fill="rgba(154, 205, 50, 0.11)"></circle><circle r="13.865" cx="180.145" cy="513.245" filter="url(#SvgjsFilter1037)" fill="rgba(154, 205, 50, 0.11)"></circle><circle r="9.9" cx="62.6" cy="167.49" filter="url(#SvgjsFilter1037)" fill="rgba(154, 205, 50, 0.11)"></circle><circle r="12.135" cx="100.405" cy="369.465" filter="url(#SvgjsFilter1037)" fill="rgba(154, 205, 50, 0.11)"></circle><circle r="9.515" cx="159.95499999999998" cy="338.885" filter="url(#SvgjsFilter1037)" fill="rgba(154, 205, 50, 0.11)"></circle><circle r="10.88" cx="918.87" cy="528.38" filter="url(#SvgjsFilter1037)" fill="rgba(154, 205, 50, 0.11)"></circle><circle r="14.98" cx="1235.05" cy="573.22" filter="url(#SvgjsFilter1037)" fill="rgba(154, 205, 50, 0.11)"></circle><circle r="11.12" cx="727.89" cy="468.9" filter="url(#SvgjsFilter1037)" fill="rgba(154, 205, 50, 0.11)"></circle><circle r="12.965" cx="1107.485" cy="811.645" filter="url(#SvgjsFilter1037)" fill="rgba(154, 205, 50, 0.11)"></circle><circle r="14.565" cx="90.735" cy="447.135" filter="url(#SvgjsFilter1037)" fill="rgba(154, 205, 50, 0.11)"></circle><circle r="8.315" cx="1135.7250000000001" cy="660.1450000000001" filter="url(#SvgjsFilter1037)" fill="rgba(154, 205, 50, 0.11)"></circle><circle r="13.12" cx="429.49" cy="115.03" filter="url(#SvgjsFilter1037)" fill="rgba(154, 205, 50, 0.11)"></circle><circle r="11.4" cx="738.24" cy="761.47" filter="url(#SvgjsFilter1037)" fill="rgba(154, 205, 50, 0.11)"></circle><circle r="11.855" cx="353.14500000000004" cy="141.965" filter="url(#SvgjsFilter1037)" fill="rgba(154, 205, 50, 0.11)"></circle><circle r="11.71" cx="1029.36" cy="186.97" filter="url(#SvgjsFilter1037)" fill="rgba(154, 205, 50, 0.11)"></circle><path d="M527.8 816.5L545.5 766.4 588.3 746.3 584.4 793.5 543.6 827.5C543.6 827.5 543.2 828 543.2 828 542.5 829 542.8 830.8 543.5 832.1 544.7 833.7 547 833.8 548.1 832.2L583.7 802.3 581.8 825.2 566.2 838.6C566.2 838.6 565.9 839.1 565.9 839.1 565.1 840.1 565.5 841.9 566.1 843.2 567.4 844.8 569.7 844.9 570.8 843.3L581.6 834.4 580 851.3C579.8 852.7 581.5 854.7 583 854.9 584.9 855.5 586.4 853.4 586.6 851.9L588.1 835.1 597 845.9C598.2 847.6 600.5 847.6 601.6 846 603.2 844.8 603.3 842.5 601.7 841.4L588.3 825.9 590.7 803.4 620.6 838.9C621.8 840.6 624.1 840.6 625.2 839 626.8 837.8 626.8 835.5 625.3 834.4L591.3 793.6 595.2 746.5 634.6 773.9 644.1 826.5C644.4 828.2 646 829.3 647.7 829 649.5 828.7 650.6 827.1 650.3 825.3L642 779 660.9 792.2 664.4 811.8C664.7 813.5 666.3 814.6 668.1 814.3 669.9 814 671 812.4 670.7 810.6L668.3 797.3 683 807.5C684.2 809.1 686.3 808.3 687.4 806.7 688.5 805.1 688.2 803.4 686.6 802.3L673 792.8 686.3 790.4C688.1 790 689.2 788.5 688.9 786.7S687 783.8 685.2 784.1L665.6 787.6 646.7 774.5 693 766.2C694.8 765.9 695.9 764.3 695.6 762.5 695.3 760.7 693.7 759.6 691.9 759.9L639.3 769.4 600.5 742.3 643.3 722.2 692 739.7C693.9 740.3 695.5 739.1 696.6 737.5 697.2 735.5 696 733.9 694.4 732.8L650.7 717.2 671.5 707.5 690.7 714.6C692.6 715.2 694.2 714 695.3 712.4 695.9 710.5 694.7 708.9 693.6 708.1L680.4 703.6 695.7 696.3C696.9 695.6 698.4 693.5 697.2 691.9 696 690.2 694.4 689.1 692.8 690.4L677.5 697.7 682 684.5C682.6 682.5 681.4 680.9 680.4 680.2 678.9 680 677.2 680.3 676.4 681.3 676.4 681.3 676.1 681.9 676.1 681.9L668.9 701.1 648.1 710.8 663.7 667.1C664.3 665.1 663.1 663.5 662.1 662.8 660.6 662.6 658.9 662.9 658.1 663.9 658.1 663.9 657.8 664.5 657.8 664.5L640.1 714.5 597.2 734.6 601.2 687.5 642 653.5C643.6 652.3 643.7 650 642.1 648.9 640.9 647.3 638.6 647.2 637.5 648.8L601.9 678.6 603.8 655.7 619.3 642.4C620.9 641.2 621 638.9 619.4 637.8 618.2 636.1 615.9 636.1 614.8 637.7L604 646.5 605.6 629.7C605.8 628.3 604 626.3 602.6 626.1 601.2 625.9 599.9 626.6 599.2 627.6 598.8 628.1 598.5 628.7 598.6 629.5L597.1 646.4 588.2 635.6C587 633.9 584.7 633.9 583.6 635.5 583.6 635.5 583.2 636 583.2 636 582.5 637 582.8 638.8 583.5 640.1L596.9 655.6 595 678.5 565.2 642.9C564 641.3 561.6 641.2 560.5 642.8 560.5 642.8 560.2 643.3 560.2 643.3 559.5 644.4 559.8 646.2 560.5 647.4L594.4 688.2 590.5 735.4 551.6 708.3 542.2 655.8C541.9 654 540.3 652.9 538.5 653.2 536.7 653.5 535.6 655.1 535.9 656.9L543.7 702.8 524.8 689.7 521.3 670.1C521 668.3 519.4 667.2 517.6 667.5S514.7 669.4 515.1 671.2L517.5 684.6 503.8 675.1C502.2 674 500.4 674.3 499.4 675.9 498.3 677.4 498.6 679.2 500.1 680.3L513.8 689.8 500.4 692.2C499.6 692.4 498.7 692.5 497.9 693.6S497.4 695.5 497.5 696.4C497.8 698.2 499.4 699.3 501.2 699L520.8 695.5 539.7 708.6 493.4 716.9C492.5 717.1 491.6 717.2 490.9 718.3 490.5 718.8 490.3 720.2 490.5 721.1 490.8 722.9 492.4 724 494.1 723.7L546.7 714.3 585.6 741.3 542.7 761.4 492.7 743.7C491.3 743.5 489.5 743.8 488.7 744.9 488.7 744.9 488.4 745.4 488.4 745.4 487.8 747.4 489 749 490.1 749.7L533.8 765.3 513 775 493.8 767.9C492.4 767.7 490.6 768 489.9 769.1 489.9 769.1 489.5 769.6 489.5 769.6 488.9 771.5 490.1 773.1 491.2 773.9L504.4 778.4 489.2 785.7C488.8 786.3 487.9 786.4 487.6 786.9 486.8 788 486.6 789.4 487.3 790.7 488.5 792.3 490.1 793.4 491.7 792.2L506.9 784.8 502.4 798.1C501.9 800 503.1 801.6 504.1 802.4 506.1 802.9 507.7 801.7 508.4 800.7L515.5 781.5 536.3 771.8 520.7 815.5C520.1 817.4 521.4 819 522.4 819.8 525.1 819.3 527.2 818.4 527.8 816.5Z" fill="rgba(154, 205, 50, 0.11)"></path><path d="M482.4 323.1L462.9 327.7 466.2 314.7C466.7 313.3 465.8 311.5 464 310.6 462.2 310.5 460.4 311.4 459.9 312.8L455.1 329.9 437 334.1 447 299.4C447.5 297.2 446.6 295.3 444.8 295.3 443 294.4 441.2 295.3 440.7 297.5L429.7 335.8 413.3 340.1 386.2 312 390 297.6 431.4 287.9C431.8 287.4 432.3 287 432.7 286.5 433.2 286.1 433.7 284.7 433.7 283.8 433.3 281.6 431.5 280.6 429.7 281.5L392 290.4 397.2 272.8 416.3 267.7C416.7 268.2 417.2 267.7 417.7 267.3 418.6 266.4 419.1 265 418.6 263.7 418.2 262.3 416.4 261.4 414.6 261.3L399.1 265.6 405.4 243.5C405.8 242.2 405 240.4 403.2 239.4 401.4 239.4 399.5 240.3 399.1 241.6L393.3 262.4 383.9 252.7C382.6 251.3 380.3 251.8 379.4 252.6 378 254 377.6 256.2 378.9 257.6L390.9 270 385.7 287.6 360.7 261.8C359.4 260.5 357.6 260.4 356.2 261.8 354.8 263.1 354.8 264.9 356.1 266.3L383.7 294.8 379.9 310.1 341.7 319.5 331.5 308.9 342.5 269.7C343.4 267.9 342.1 265.6 340.3 265.6 338.5 264.7 337.1 266 336.2 267.8L326.1 303.4 313.2 290.1 318.5 272.5C318.9 271.1 317.6 268.9 316.3 268.4S312.6 269.2 311.7 271L307.9 284.5 292.3 268.5C290.9 267.1 288.7 267.5 287.3 268.8 286.4 269.7 285.9 272 287.2 273.4L302.8 289.4 288.7 293.3C287.3 293.7 286 295.1 286.4 297.3 286.8 298.7 289.1 300.1 290.4 299.7L308.1 295 321.1 308.3 285.2 317.2C283.3 318.1 282 319.4 282.4 321.7 282.8 323.1 285 324.5 286.4 324L326.4 313.8 336.6 324.4 326.1 362.2 310.6 365.6 283 337.1C281.7 335.7 279.9 335.7 278.5 337 277.1 338.4 276.6 340.6 278 342L302.9 367.7 285.2 372.4 273.2 360C271.8 358.7 270 358.6 268.6 360 267.3 361.3 267.2 363.1 268.6 364.5L277.9 374.1 257 379.2C255.7 379.7 254.3 381.9 254.7 383.3 255.6 385.1 256.9 386.5 258.7 385.6L280.5 380.5 276.2 395.4C276.2 397.2 277.1 399 278.4 399.5 279.8 400 281.1 399.5 282.1 398.6 282.1 398.6 282.5 398.2 282.5 397.3L288.3 378.4 306 373.7 295.9 411.1C295 412.9 295.8 414.7 298.1 415.2 299 415.2 299.9 415.2 300.8 414.3 301.3 413.9 301.7 413.4 302.2 413L313.3 372 327.8 368.6 355 396.6 350.2 412.9 311.5 422.6C309.3 423.1 308.3 424.9 309.2 426.7 309.2 428.5 311 429.4 313.3 429L348.3 420.1 343.4 438.1 326.2 442.3C324.8 442.8 323.9 444.6 323.8 446.4 324.7 448.2 326.1 449.6 327.9 448.7L341.1 445.7 335.8 465.1C334.8 466.9 336.2 468.3 338 469.2 338.9 469.2 340.2 468.8 341.2 467.9 341.2 467.9 341.6 467.5 342.1 467L347.8 446.3 359 457.8C359.9 458.7 362.1 459.2 363.5 457.9 364.9 456.5 364.5 454.3 363.6 453.3L349.8 439.1 354.6 421.1 381.7 449.1C383.1 450.5 385.3 450.1 386.7 448.7S388.1 445.6 386.8 444.2L357 413.4 361.3 398.5 399.4 389.2 411 401.1 399.5 440.8C399.5 442.6 400.4 444.4 402.2 445.4 403.1 445.4 404.4 444.9 405.4 444.1 405.8 443.6 406.3 443.2 406.3 442.3L416.4 406.7 429.3 420 424.5 438C424 439.4 424.9 441.2 426.7 442.1 428.5 442.2 430.3 441.3 430.8 439.9L434.6 425.5 448.9 440.2C449.8 441.1 452.5 441.2 453.4 440.3 454.8 439 454.8 436.2 453.9 435.3L439.7 420.6 453.7 417.7C454.2 417.2 454.7 416.8 455.1 416.3 456 415.4 456.5 414.1 456.5 413.2 455.7 411.4 453.9 410.4 452.1 410.4L434.3 415.1 421.4 401.8 457.3 392.8C459.6 392.4 460.5 390.6 460.1 389.3 459.7 387 457.9 386 456.1 386L416.1 396.2 404.5 384.3 415 346.4 430 342.6 459.9 373.4C461.2 374.8 463 374.8 464.4 373.5 465.8 372.1 465.8 370.3 464.5 369L437.3 340.9 455.5 336.7 469.3 350.9C470.2 351.8 472.9 351.9 474.3 350.6 475.7 349.2 475.2 346.9 474.3 346L463.2 334.5 484.1 329.4C484.6 329 484.6 329 485 328.5 486 327.7 486.4 326.3 486.4 325.4 485.6 323.6 483.8 322.6 482.4 323.1ZM399.1 378.8L397.7 382.8 394.1 383.7 363.2 391.3 359.6 392.2 356.9 389.4 335.1 366.9 332.4 364.1 333.4 360.5 342 329.9 343 326.3 347 325 377.5 317.8 381.6 316.5 384.3 319.3 406.1 341.8 408.7 344.5 407.3 348.6 399.1 378.8Z" fill="rgba(154, 205, 50, 0.11)"></path><path d="M1326.5 375.3L1363.2 360.1 1373.4 364.1 1376.7 388.3 1367.9 395.3 1328.5 390C1328 390.1 1328 390.1 1327.5 390.2 1326.6 390.3 1325.7 390.9 1325.4 392.4 1325.6 393.8 1326.2 394.7 1327.7 395L1362.2 399.5 1348.6 410.1 1333.3 408.3C1333.3 408.3 1332.9 408.3 1332.9 408.3 1331.9 408.4 1331 409.1 1330.7 410.5 1330.4 411.6 1331.5 412.9 1333 413.1L1342.9 414.7 1332.8 422.4C1331.9 423 1331.7 424.5 1332.3 425.8S1334.9 426.9 1336.3 426.3L1345.9 418.7 1344.8 428.5C1344.5 430 1345.7 431.3 1347.2 431.6 1348.1 431.4 1349.5 430.8 1349.8 429.3L1351.6 414 1365.6 403.4 1361.1 437.9C1360.8 439.4 1362 440.7 1363 441.1 1364.4 440.9 1365.8 440.2 1366 438.7L1370.9 399.3 1380.1 392.2 1402.2 401.4 1403.7 412.8 1379.9 444.6C1379.1 445.7 1379.3 447.1 1380.4 447.9S1382.9 448.5 1383.7 447.5L1404.6 419.4 1407 437 1397.9 448.9C1397.1 450 1397.3 451.4 1398.5 452.7S1401 453.3 1401.8 452.3L1407.9 443.7 1409.6 456.5C1409.8 458 1411.4 458.7 1412.8 458.5 1414.2 458.3 1415.1 457.3 1414.9 455.8L1413.1 443 1421.2 449.2C1422.4 450.5 1423.8 450.3 1424.6 448.7 1425.4 447.6 1425.2 446.2 1424.1 445.4L1412.2 436.3 1409.8 418.7 1437.4 440.2C1438.5 441 1440.4 440.7 1441.3 439.7S1441.9 437.2 1440.8 436.3L1408.9 412.1 1407.4 400.7 1426.7 385.9 1437 390.3 1452.1 427C1452.8 428.4 1454.3 428.7 1455.7 428.5 1457.1 427.8 1457.4 426.3 1457.2 424.9L1443.6 392.8 1459.5 399.4 1465.3 413.6C1466 415 1467.5 415.3 1468.9 415.1 1469.8 414.5 1470.6 412.9 1469.9 411.6L1466.2 402.4 1478 407.1C1479 407.4 1480.4 406.8 1481.2 405.7 1481.5 404.2 1480.8 402.8 1479.8 402.5L1468 397.8 1477.6 393.6C1478.5 393 1479.3 391.4 1478.7 390.5 1478.5 389.1 1477.5 388.7 1476 388.9 1476 388.9 1475.6 389 1475.6 389L1461.3 394.8 1445.4 388.2 1477.5 374.7C1478.9 374 1479.7 372.9 1479 371.6 1478.4 370.2 1477.3 369.9 1476.4 370 1475.9 370.1 1475.9 370.1 1475.9 370.1L1438.8 385.7 1428.5 381.3 1425.2 357.1 1434 350.5 1473.9 355.3C1474.9 355.7 1476.2 354.5 1476.6 353.5 1476.9 352 1475.7 350.7 1474.2 350.4L1439.7 345.9 1453.3 335.3 1468.5 337.2C1470 337.4 1471.4 336.8 1471.2 335.3 1471.5 333.8 1470.3 332.5 1469.3 332.2L1459 331.2 1469.1 323.5C1469.9 322.4 1470.2 320.9 1469.6 319.6 1469 319.2 1468 318.8 1467.1 318.9 1466.6 319 1466.6 319 1466.2 319.6L1456.1 327.2 1457.1 316.9C1457.4 315.4 1456.3 314.6 1455.3 314.2 1454.8 314.3 1454.8 314.3 1454.3 314.4 1453.4 314.5 1452.5 315.1 1452.1 316.1L1450.3 331.4 1436.7 341.9 1441.3 307.4C1441.1 306 1440.4 304.6 1439 304.8 1438.4 304.4 1438.4 304.4 1438 304.5 1437 304.6 1436.2 305.7 1435.8 306.7L1431.1 346.6 1422.3 353.1 1399.7 344 1398.2 333.1 1422.5 301.2C1423.3 300.2 1423.1 298.3 1422 297.4S1419 296.9 1418.2 298L1397.3 326 1395 308.8 1403.9 296.5C1404.8 295.4 1404.6 294 1403.5 293.2 1402.4 292.3 1401 292.5 1400.2 293.6L1394 301.7 1392.3 288.9C1392.1 287.9 1391 286.6 1389.6 286.8 1388.1 287 1386.9 288.6 1387 289.6L1388.8 302.4 1380.7 296.3C1380.1 295.8 1379.6 295.4 1379.1 295.5 1378.2 295.6 1377.7 296.2 1377.3 296.7 1376.5 297.8 1376.7 299.2 1377.8 300L1389.7 309.6 1392.1 326.7 1364.4 305.2C1363.9 304.8 1363.4 304.9 1362.5 305 1362 305.1 1361.5 305.1 1361.1 305.7 1360.3 306.8 1360.5 308.7 1361.6 309.5L1393 333.8 1394.5 344.8 1375.7 359.4 1365 355.5 1349.8 318.4C1349.1 317.5 1348.1 316.7 1347.1 316.8 1346.6 316.8 1346.6 316.8 1346.7 317.3 1345.3 317.5 1344.5 319.1 1345.2 320.4L1358.7 352.5 1342.4 346 1336.6 331.8C1335.9 330.9 1334.9 330.5 1334 330.7 1334 330.7 1333.5 330.7 1333.5 330.7 1332.1 330.9 1331.3 332.5 1332 333.8L1336.2 343.4 1324.4 338.7C1323.9 338.3 1323.4 338.4 1322.9 338.5 1322 338.6 1321.1 339.2 1321.2 339.7 1320.4 341.2 1321.1 342.6 1322.1 343.4L1333.9 348.1 1324.7 351.8C1323.4 352.4 1322.6 354 1323.3 355.4 1323.9 356.3 1325.4 357 1326.3 356.4L1340.6 350.6 1356.5 357.2 1324.4 370.7C1323 371.4 1322.7 372.9 1322.9 374.3 1323.5 375.2 1325.1 375.9 1326.5 375.3ZM1381.5 384.8L1379 366.2 1378.6 363.4 1380.8 361.6 1395.3 350.5 1397.9 348.6 1400.5 349.8 1417.4 356.7 1420 357.8 1420.4 360.6 1422.9 379.2 1423.3 382 1421.1 383.8 1406.6 394.9 1404.4 396.7 1401.4 395.7 1384.5 388.7 1381.9 387.6 1381.5 384.8Z" fill="rgba(154, 205, 50, 0.11)"></path><path d="M718.3 546.8L730 551.4 723.6 556.9C722.9 557.4 722.7 558.6 723.2 559.8 724.2 560.4 725.4 560.6 726.1 560.1L734.7 553 745.5 557.4 728 571.6C726.9 572.5 726.7 573.8 727.6 574.4 728.2 575.6 729.5 575.8 730.5 574.8L749.9 559.1 759.8 562.8 763.7 586.9 756.5 592.9 731.9 583.1C731.5 583.1 731.1 583.2 730.7 583.3 730.3 583.3 729.6 583.9 729.2 584.3 728.6 585.6 729.2 586.8 730.5 587L753 595.9 744 603 732.4 598.8C732.3 598.4 731.9 598.5 731.5 598.5 730.7 598.7 730 599.2 729.7 600 729.5 600.9 730.1 602 731 602.7L740.4 606 729.3 615.1C728.6 615.6 728.4 616.9 729 618 729.9 618.7 731.2 618.9 731.9 618.3L742.2 609.8 743.6 618.1C743.8 619.2 745.1 619.8 745.9 619.7 747.1 619.5 748.1 618.5 747.9 617.4L746.2 606.7 755.2 599.6 758.8 621.7C758.9 622.9 759.9 623.5 761 623.4 762.2 623.2 762.9 622.2 762.7 621.1L758.8 596.6 766.2 590.1 789.1 599 790.6 608.1 770.9 624.2C769.8 624.8 769.6 626.4 770.6 627.1 771.2 628.2 772.3 628 773.5 627.4L791.4 612.8 793.2 624.2 784.2 631.4C783.5 631.9 783.4 633.5 783.9 634.3S786 635.1 787.2 634.5L794 629 796.2 642.8C796.4 644 797.7 644.6 798.9 644.4 799.7 644.3 800.7 643.3 800.5 642.1L798.3 628.3 806.9 631.4C807.8 631.6 808.9 631.4 809.5 630.1 809.8 629.3 809.2 627.7 808.3 627.5L797.5 623.5 795.7 612.1 817.3 620.4C818.5 620.6 819.7 620.4 820.3 619.1 820.6 618.2 819.9 616.7 819.1 616.4L794.9 607.4 793.5 598.3 812.4 582.7 821.5 586.5 825.5 610.9C825.7 612.1 826.6 612.8 827.8 612.6 829 612.4 830 611.4 829.8 610.2L826.3 588.1 837 592.1 838.8 602.7C838.9 603.9 839.9 604.6 841 604.4 842.2 604.2 842.9 603.3 842.7 602.1L841.4 593.8 853.9 598.7C854.8 598.9 856.3 598.3 856.5 597.4 856.7 596.2 856.6 595 855.3 594.8L842.3 589.6 849.8 583.5C850.5 582.6 850.7 581.3 850.2 580.6 849.7 579.9 848.8 579.6 848 579.8 848 579.8 847.6 579.8 847.3 580.3L837.6 587.9 826.8 584 845.4 568.4C846.5 567.8 846.7 566.6 845.7 565.5 845.3 565.2 844.8 564.9 844 565 843.6 565.1 843.2 565.1 842.8 565.2L822.5 582.2 813.8 578.8 809.9 554.7 818.2 548.1 841.5 556.9C842.8 557.5 843.9 556.9 844.1 555.7 844.8 554.7 844.2 553.6 842.9 553L821.8 545.1 830.7 537.6 841.1 541.6C841.9 541.8 843 541.3 843.7 540.3 843.9 539.1 843.7 537.9 842.5 537.7L834.6 534.5 844.3 526.5C845.4 525.9 845.2 524.7 844.6 523.6 844.2 523.2 843.3 523 842.5 523.1 842.5 523.1 842.1 523.2 841.7 523.2L831.4 531.8 829.8 521.9C829.7 521.1 828.7 520.1 827.5 520.3 826.3 520.5 825.7 521.8 825.8 522.6L827.8 534.8 818.9 542.3 815 518.2C814.8 517 813.5 516.4 812.3 516.6S810.5 517.7 810.7 518.9L814.9 545.4 807.4 551.5 784.5 542.6 782.8 532.3 802.9 516.1C803.6 515.2 803.8 514 803.2 512.8 802.7 512.5 801.9 512.2 801.1 512.4 800.7 512.4 800.3 512.5 800 512.9L782.1 527.6 780.2 516.1 789.1 508.6C789.9 508.1 790.1 506.8 789.5 505.7 788.6 505.1 787.3 504.9 786.6 505.4L779.5 511.4 777.4 498.8C777.3 498 775.9 497 775.1 497.1 773.9 497.3 773 498.7 773.1 499.5L775.1 512.1 766.8 508.6C766.5 508.6 766.1 508.7 765.7 508.8 764.9 508.9 764.1 509.4 763.8 509.9 763.6 511.1 764.2 512.2 765.1 512.9L775.9 516.8 777.7 528.3 756.1 520C754.8 519.4 753.7 520 753.4 520.9 752.8 522.2 753.4 523.3 754.3 524L778.5 533 780.1 543.3 761.2 558.9 752.1 555.5 747.9 529C747.7 527.9 746.8 527.2 745.6 527.4 744.4 527.6 743.7 528.5 743.9 529.7L747.8 553.8 737 549.4 735 537.2C734.9 536.4 733.5 535.4 732.3 535.6 731.1 535.8 730.5 537.1 730.7 537.9L732.2 547.8 719.7 542.9C719.3 543 719.3 543 718.9 543 718.1 543.2 717.4 543.7 717.1 544.1 716.9 545.4 717.5 546.5 718.3 546.8ZM780.9 548L783.1 546.5 785.3 547.3 803.8 554.5 806 555.3 806.4 557.7 809.5 577 809.9 579.4 808.1 580.9 792.7 593.5 790.9 595 788.4 594.2 770.2 587 767.6 586.2 767.2 583.9 764.1 564.5 763.7 562.1 765.9 560.6 780.9 548Z" fill="rgba(154, 205, 50, 0.11)"></path><path d="M269.3 573.7L244.8 563.7 241.8 557 251.6 544 259 544.7 275.3 565.7C275.5 565.9 275.5 565.9 275.8 566.1 276.3 566.5 277 566.6 277.8 566.1 278.4 565.3 278.5 564.6 278 563.8L263.7 545.4 275.1 546.8 281.5 554.8C281.5 554.8 281.7 555 281.7 555 282.2 555.4 283 555.5 283.8 554.9 284.4 554.6 284.5 553.5 283.9 552.6L280 547.3 288.3 548.4C289 548.5 289.9 547.9 290.2 546.9S289.5 545.2 288.5 544.9L280.4 544 285.5 539.8C286.4 539.3 286.4 538.1 285.9 537.3 285.3 536.9 284.4 536.6 283.5 537.1L275.5 543.5 263.9 542 282.2 527.7C283 527.2 283.1 526 282.8 525.4 282 524.8 281.1 524.5 280.2 525.1L259.5 541.5 251.8 540.5 245.6 525.8 250.2 519.7 276.4 515.8C277.3 515.6 277.9 514.9 277.7 514S276.9 512.5 276 512.6L252.9 516.1 260 506.7 269.9 505.3C270.8 505.1 271.4 504.4 271.4 503.2S270.5 501.7 269.6 501.9L262.7 503.1 267.9 496.2C268.5 495.4 268.1 494.3 267.3 493.7 266.6 493.2 265.7 493.3 265.1 494.1L259.9 501 259 494.2C259 493.1 258.3 492.5 257.2 492.9 256.3 493 255.7 493.8 255.8 494.7L257.2 504.5 250.1 514 247.1 490.9C246.9 490 245.9 489.2 245 489.4S243.5 490.3 243.7 491.2L247.4 517.6 242.8 523.7 226.7 521.7 223.9 514.8 233.9 490.2C234.3 489.3 233.7 488.5 232.9 487.9 232 487.6 231.1 488.1 230.5 488.9L221.9 510.5 217.5 499.9 221.4 490.4C221.7 489.5 221.1 488.6 220.4 488.1 219.7 487.9 218.6 488.3 218.3 489.3L215.7 495.4 212.3 487.6C212 487 211 486.6 210.1 486.8 209.3 487.3 209 488.3 209.3 488.9L212.7 496.7 206.2 494.2C205.4 494.1 204.4 494.4 204.2 495.1 203.7 495.9 204 496.6 204.7 497.1 204.7 497.1 205 497.3 205 497.3L214.5 501.2 218.9 511.8 197.4 503.2C196.4 502.9 195.5 503 195.2 504 194.9 504.9 195.2 505.6 195.7 506 196 506.1 196 506.1 196 506.1L220.9 516.1 223.7 523 213.9 536.1 206.7 535 190 514.1C189.7 513.4 188.5 513.4 187.9 513.7 187.1 514.3 187 515.4 187.6 516.2L201.8 534.6 190.4 533.2 184 525.2C183.5 524.4 182.5 524.1 181.9 524.8 181.1 525.4 181 526.5 181.4 527.2L185.8 532.5 177.4 531.4C176.5 531.5 175.6 532.1 175.3 533.1 175.4 533.5 175.7 534.2 176.2 534.5 176.5 534.7 176.5 534.7 176.9 534.7L185.3 535.8 180 540.2C179.2 540.8 179.3 541.6 179.6 542.3 179.9 542.5 179.9 542.5 180.1 542.7 180.6 543.1 181.3 543.2 182 542.9L190 536.5 201.4 537.8 183.1 552.1C182.5 552.9 182.2 553.8 182.9 554.4 183 554.8 183 554.8 183.2 555 183.8 555.4 184.6 555.3 185.3 555L206.2 538.3 213.5 539.3 219.9 554.2 215.5 560.1 189.1 563.8C188.2 563.9 187.4 565 187.5 565.8S188.7 567.5 189.6 567.4L212.6 563.9 205.7 573.1 195.6 574.8C194.7 574.9 194.2 575.6 194.3 576.5 194.4 577.4 195.2 578 196.1 577.9L202.8 576.9 197.6 583.8C197.2 584.4 197.2 585.5 197.9 586.1 198.7 586.7 200 586.5 200.4 586L205.6 579.1 206.6 585.8C206.6 586.2 206.7 586.7 207 586.9 207.5 587.2 207.9 587.2 208.4 587.1 209.3 587 209.8 586.2 209.7 585.3L208.5 575.2 215.4 566 218.5 589.1C218.5 589.6 218.8 589.8 219.3 590.1 219.6 590.3 219.8 590.5 220.3 590.5 221.2 590.3 221.9 589.3 221.8 588.4L218.3 562.2 222.7 556.3 238.5 558.2 241.8 565 231.6 589.8C231.5 590.5 231.6 591.4 232.1 591.8 232.4 591.9 232.4 591.9 232.5 591.7 233.3 592.3 234.4 591.9 234.7 590.9L243.3 569.4 248 580.1 244.1 589.6C244 590.3 244.3 590.9 244.8 591.3 244.8 591.3 245.1 591.5 245.1 591.5 245.9 592.1 246.9 591.7 247.3 590.7L249.8 584.2 253.2 592C253.2 592.4 253.5 592.6 253.7 592.8 254.2 593.2 254.9 593.3 255.1 593.1 256.2 592.7 256.5 591.7 256.4 590.8L253 583.1 259.1 585.6C260.1 586 261.2 585.6 261.5 584.6 261.6 583.9 261.2 582.8 260.5 582.7L251.1 578.8 246.6 568.2 268.1 576.8C269.1 577.1 269.9 576.6 270.5 575.8 270.6 575.1 270.3 574 269.3 573.7ZM247.6 543.4L240.1 553.4 239 554.9 237.1 554.7 225 553.2 222.9 552.8 222.2 551.1 217.4 539.9 216.7 538.2 217.9 536.6 225.4 526.7 226.5 525.1 228.4 525.3 240.5 526.8 242.3 527 243.3 528.9 248.1 540.1 248.8 541.8 247.6 543.4Z" fill="rgba(154, 205, 50, 0.11)"></path><path d="M1139.1 663.8L1119.8 614.5 1125.4 601 1157.8 597.2 1166.9 609 1158.8 661.5C1158.9 662.2 1158.9 662.2 1158.9 662.8 1159.1 664.1 1159.9 665.3 1161.8 665.7 1163.7 665.5 1164.9 664.7 1165.4 662.7L1172.3 616.8 1186 635.2 1183.2 655.5C1183.2 655.5 1183.3 656.1 1183.3 656.1 1183.4 657.4 1184.2 658.6 1186.2 659 1187.5 659.5 1189.3 658 1189.7 656L1192.1 642.9 1202 656.5C1202.8 657.7 1204.8 658.1 1206.6 657.3S1208.1 653.9 1207.3 652L1197.4 639 1210.5 640.7C1212.5 641.1 1214.2 639.6 1214.6 637.7 1214.5 636.4 1213.6 634.6 1211.7 634.1L1191.4 631.3 1177.6 612.3 1223.5 619.2C1225.5 619.7 1227.2 618.2 1227.7 616.8 1227.5 614.9 1226.6 613.1 1224.6 612.7L1172.2 605.2 1163.1 592.7 1175.8 563.6 1191.1 561.8 1232.8 594.3C1234.2 595.5 1236.2 595.2 1237.3 593.8S1238.2 590.5 1236.8 589.4L1200 560.8 1223.5 558 1239.1 570.4C1240.5 571.5 1242.4 571.3 1244.2 569.8S1245.1 566.5 1243.7 565.4L1232.4 557 1249.5 555C1251.4 554.8 1252.5 552.7 1252.3 550.8 1252.1 548.9 1250.6 547.8 1248.7 548L1231.6 550 1240 539.4C1241.8 537.9 1241.5 536 1239.5 534.9 1238.1 533.8 1236.2 534 1235 535.4L1222.7 551 1199.1 553.8 1228.5 517.5C1229.6 516.1 1229.3 513.6 1227.9 512.4S1224.5 511.5 1223.4 512.9L1190.2 554.8 1175 556.6 1155.9 530.4 1162 516.8 1211.3 497.6C1213.2 496.7 1213.6 494.8 1213.4 492.9 1212.5 491 1210.5 490.6 1208.6 490.8L1165.5 508.1 1174.7 487 1193.8 479.7C1195.6 478.8 1196 476.8 1195.8 474.9 1195 473.7 1193 472.7 1191.1 473.5L1178.8 478.2 1185.4 462.6C1185.9 461.2 1185 459.4 1183.6 458.3 1181.6 457.9 1179.8 458.7 1179.3 460.1L1172.7 475.6 1167.4 462.7C1166.6 461.5 1164.5 460.5 1163.3 461.3 1161.4 461.5 1160.9 462.8 1161.1 464.7 1161.1 464.7 1161.2 465.4 1161.2 465.4L1168.6 484.5 1159.4 505.5 1142.2 462.4C1141.3 460.6 1139.9 459.5 1138.1 460.3 1136.2 461.2 1135.8 462.5 1135.9 463.8 1136 464.4 1136 464.4 1136 464.4L1155.9 514.3 1149.8 527.9 1117.3 531.7 1108.9 519.8 1116.3 466.7C1116.8 465.4 1115.3 463.6 1113.9 463.1 1111.9 462.7 1110.2 464.2 1109.8 466.2L1102.8 512.1 1089.1 493.7 1091.9 473.4C1092.3 471.4 1091.5 469.6 1089.6 469.8 1087.6 469.4 1085.8 470.9 1085.3 472.2L1083.7 485.9 1073.7 472.3C1072.3 471.2 1070.3 470.7 1068.5 471.6 1068 472.3 1067.5 473.7 1067.6 474.9 1067.7 475.6 1067.7 475.6 1068.4 476.1L1078.3 489.8 1064.6 488.2C1062.7 487.7 1061.5 489.2 1061 490.5 1061.1 491.1 1061.1 491.1 1061.2 491.8 1061.3 493 1062.1 494.2 1063.5 494.7L1083.8 497.5 1097.5 515.9 1051.6 509C1049.7 509.2 1047.8 510.1 1048.1 512 1047.5 512.7 1047.5 512.7 1047.6 513.3 1047.7 514.6 1049.1 515.7 1050.5 516.2L1103.5 523.6 1112 535.5 1099.3 565.3 1084.7 567 1042.9 533.8C1041.4 532.7 1038.9 533 1037.8 534.4S1036.9 538.4 1038.4 539.5L1075.2 568.1 1052.3 570.8 1036 558.5C1034.6 557.3 1032.7 557.6 1031.6 559 1030.5 560.4 1030.7 562.3 1032.1 563.4L1042.7 571.9 1025.6 573.9C1024.3 574 1022.6 575.5 1022.8 577.4 1023 579.3 1025.1 581 1026.4 580.8L1043.6 578.9 1035.1 589.5C1034.6 590.2 1034 590.9 1034.1 591.6 1034.2 592.8 1034.9 593.4 1035.6 593.9 1037.1 595.1 1039 594.9 1040.1 593.4L1053.1 577.8 1076 575.1 1046.7 611.4C1046.1 612.1 1046.2 612.7 1046.3 614 1046.4 614.6 1046.5 615.2 1047.2 615.8 1048.6 616.9 1051.1 616.6 1052.3 615.2L1085.5 574 1100.1 572.3 1119.2 597.8 1113.7 612 1063.8 631.3C1062.6 632.1 1061.5 633.5 1061.6 634.8 1061.7 635.4 1061.7 635.4 1062.3 635.3 1062.6 637.2 1064.6 638.3 1066.4 637.4L1109.5 620.2 1100.5 641.9 1081.3 649.2C1080.1 650 1079.6 651.3 1079.8 652.6 1079.8 652.6 1079.9 653.3 1079.9 653.3 1080.1 655.2 1082.1 656.2 1084 655.4L1096.9 650 1090.3 665.6C1089.8 666.3 1089.8 666.9 1089.9 667.6 1090 668.8 1090.8 670 1091.5 670 1093.5 671 1095.4 670.1 1096.5 668.7L1103 653.2 1107.7 665.5C1108.6 667.3 1110.6 668.4 1112.4 667.5 1113.6 666.7 1114.7 664.7 1113.9 663.5L1106.5 644.4 1115.7 623.3 1132.9 666.4C1133.8 668.3 1135.8 668.7 1137.7 668.5 1138.9 667.7 1139.9 665.6 1139.1 663.8ZM1153.2 590.7L1128.4 593.5 1124.6 594 1122.3 591 1107.8 571.4 1105.4 567.8 1107 564.4 1116.6 542.1 1118.2 538.7 1122 538.2 1146.8 535.3 1150.6 534.9 1152.8 537.9 1167.4 557.4 1169.6 560.4 1168.2 564.4 1158.5 586.8 1157 590.2 1153.2 590.7Z" fill="rgba(154, 205, 50, 0.11)"></path><path d="M743.1 836.6L775.9 832.1 783.3 837.5 780.8 857.7 772.3 861.5 741.6 848.9C741.2 848.9 741.2 848.9 740.8 848.8 740 848.7 739.2 849 738.6 850.2 738.5 851.4 738.8 852.2 739.9 852.7L766.8 863.7 753.6 869.3 741.7 864.6C741.7 864.6 741.3 864.6 741.3 864.6 740.5 864.5 739.7 864.8 739.1 865.9 738.6 866.7 739.3 868 740.4 868.5L748.1 871.9 738.3 875.9C737.5 876.2 736.9 877.4 737.2 878.6S739 880 740.3 879.8L749.6 875.7 746.7 883.4C746.1 884.5 746.8 885.8 747.9 886.4 748.7 886.5 749.9 886.2 750.5 885.1L755.2 873.1 768.7 867.5 757.8 894.4C757.3 895.6 757.9 896.8 758.7 897.3 759.9 897.5 761.1 897.2 761.6 896.1L773.8 865.3 782.8 861.6 798.6 873.6 797.5 883.1 771.6 903.8C770.7 904.4 770.5 905.6 771.2 906.5S773.1 907.6 774 906.9L796.8 888.7 795 903.4 785.2 911.1C784.3 911.7 784.2 912.9 784.8 914.2S786.7 915.3 787.6 914.6L794.3 908.9 793 919.7C792.9 920.9 794 921.8 795.2 921.9 796.3 922.1 797.2 921.4 797.4 920.2L798.7 909.5 803.9 916.2C804.6 917.4 805.8 917.6 806.7 916.5 807.6 915.8 807.7 914.6 807 913.7L799.4 903.9 801.2 889.2 818.9 912.3C819.6 913.2 821.2 913.4 822.1 912.7S823.1 910.8 822.4 909.9L801.8 883.7 803 874.1 821.7 866.3 829 872.1 833.5 904.9C833.8 906.1 834.9 906.6 836.1 906.8 837.3 906.5 837.9 905.4 838 904.2L833.9 875.5 845.3 884.1 847 896.8C847.2 898.1 848.4 898.6 849.6 898.7 850.4 898.4 851.3 897.4 851.1 896.1L850.1 887.9 858.6 894.2C859.3 894.7 860.6 894.4 861.5 893.8 862 892.6 861.7 891.4 861 890.9L852.5 884.6 861.1 883.2C862 882.9 862.9 881.8 862.6 881 862.7 879.8 862 879.3 860.8 879.2 860.8 879.2 860.4 879.1 860.4 879.1L847.7 880.8 836.3 872.1 865 868C866.2 867.7 867.1 867 866.9 865.8 866.6 864.6 865.9 864.1 865.1 864 864.7 863.9 864.7 863.9 864.7 863.9L831.5 868.7 824.1 863 826.6 842.8 835 839.4 866.2 851.6C866.9 852.1 868.2 851.5 868.7 850.7 869.3 849.6 868.6 848.3 867.5 847.7L840.6 836.8 853.8 831.2 865.7 835.8C866.8 836.4 868.1 836.1 868.2 834.9 868.8 833.8 868.1 832.5 867.4 832L859.3 829 869 825C869.9 824.3 870.5 823.1 870.2 821.9 869.9 821.4 869.1 820.9 868.3 820.8 867.9 820.8 867.9 820.8 867.5 821.1L857.7 825.2 860.7 817.1C861.3 816 860.6 815.1 859.8 814.6 859.4 814.5 859.4 814.5 859 814.5 858.2 814.4 857.4 814.7 856.9 815.4L852.2 827.3 839 833 850 806.1C850.1 804.9 849.9 803.7 848.7 803.5 848.3 803.1 848.3 803.1 847.9 803 847.1 803 846.2 803.6 845.7 804.4L833.5 835.5 825 838.9 808.8 826.9 809.9 817.8 836.2 797.2C837 796.5 837.2 794.9 836.5 794S834.3 792.9 833.4 793.6L810.6 811.8 812.3 797.5 822.2 789.4C823.1 788.7 823.2 787.5 822.5 786.7 821.8 785.8 820.6 785.6 819.7 786.3L813.1 791.5 814.4 780.8C814.5 780 813.8 778.7 812.6 778.6 811.4 778.5 810.1 779.5 810 780.3L808.7 791 803.5 784.3C803.1 783.9 802.8 783.4 802.4 783.4 801.6 783.3 801.1 783.6 800.7 784 799.8 784.7 799.7 785.9 800.3 786.8L808 797 806.2 811.3 788.5 788.1C788.1 787.7 787.7 787.7 787 787.6 786.6 787.5 786.2 787.5 785.7 787.8 784.8 788.5 784.6 790.1 785.3 791L805.5 817.2 804.4 826.4 786.1 834.2 778.3 828.8 773.9 795.6C773.6 794.8 772.9 793.9 772.1 793.8 771.7 793.8 771.7 793.8 771.6 794.2 770.5 794 769.5 795.1 769.8 796.3L773.9 825.1 762.1 816.4 760.4 803.7C760.1 802.8 759.4 802.3 758.6 802.2 758.6 802.2 758.2 802.2 758.2 802.2 757 802 756 803.1 756.3 804.4L757.7 813 749.2 806.7C748.8 806.3 748.4 806.2 748 806.2 747.2 806.1 746.4 806.4 746.3 806.8 745.4 807.9 745.6 809.1 746.3 810L754.8 816.3 746.7 817.3C745.4 817.6 744.5 818.6 744.7 819.9 745 820.7 746.1 821.7 747 821.4L759.7 819.7 771.1 828.3 742.4 832.5C741.1 832.7 740.6 833.9 740.5 835.1 740.8 835.9 741.9 836.9 743.1 836.6ZM785.5 855.9L787.4 840.4 787.7 838 789.8 837.1 803.8 831.1 806.3 830.2 808.2 831.6 820.4 840.8 822.2 842.2 821.9 844.6 820 860.1 819.7 862.5 817.6 863.4 803.6 869.4 801.4 870.3 799.2 868.8 787 859.7 785.2 858.3 785.5 855.9Z" fill="rgba(154, 205, 50, 0.11)"></path><path d="M927.1 66.1L941.5 101.6 935.8 114.4 931 102.4C930.8 100.9 929.3 100.6 927.9 100.8 927 101.4 926.2 103 926.8 103.8L933.2 120.5 928 133.2 919.9 122.1 922.5 104.4C922.5 104.4 922.5 103.9 922.5 103.9 922.4 102.9 921.3 102.1 920.3 101.7 918.9 101.9 918 102.5 917.7 104L915.8 116.8 907.7 105.7 912.8 67.8C912.8 67.8 913.2 67.3 913.2 67.3 913.1 66.4 912 65.5 911 65.2 909.5 64.8 908.2 66 908.4 67.4L903.7 100.4 893.4 87.1 895.4 72.4C895.4 72.4 895.4 72.4 895.4 71.9 895.3 70.9 894.7 70 893.7 69.7 892.2 69.8 890.9 70.5 890.6 72L889.3 81.8 881.9 72.1C881.2 70.7 879.8 70.9 878.9 71.5 877.5 72.1 877.2 73.6 878.3 74.9L885.3 84.7 875.9 82.9C874.5 83.1 873.1 83.8 873.3 85.2 873 86.7 873.6 87.6 875.1 87.9L889.8 90 899.7 103.3 866.2 98.6C865.2 98.3 863.9 99.4 863.6 100.9 863.7 101.8 864.4 103.2 865.9 103.5L903.7 108.6 911.8 119.7 899 117.9C897.5 117.6 896.7 118.6 896.4 120.1 896 121.1 897.2 122.4 898.2 122.8L915.9 125 924.4 136 910.6 137.7 896.7 126.8C895.7 126 894.2 126.2 893.4 127.2 892.5 127.8 892.7 129.7 893.8 130.6L904 138.5 890.1 140.2 860.2 116.3C859.1 115.5 857.7 115.6 856.8 116.7 856 117.8 856.2 119.2 857.2 120L883.5 141 867.3 143 855.5 133.8C854.4 132.9 853 133.1 852.2 134.2 851.3 135.3 851.5 136.7 852.6 137.5L860.1 143.9 848.2 145.3C846.8 145.5 845.9 146.5 846.1 148 846.3 149.4 847.4 150.2 848.8 150.1L860.7 148.6 854.8 156.1C854 157.2 854.2 158.6 855.2 159.4S857.7 160.1 858.6 159L867.4 147.8 884 145.8 863.5 172C862.7 173 862.9 174.5 863.9 175.3 865 176.1 866.4 176 867.3 174.9L890.7 145 904.5 143.3 896.6 153.5C895.7 154.5 895.9 156 897 156.8 898.1 157.6 899.5 157.5 900.3 156.4L911.2 142.5 924.5 140.9 919.3 153.1 902.7 160C901.8 160.6 901 162.1 901.6 163 902.3 164.4 903.3 164.7 904.7 164.6L916.7 159.7 911.4 172 875.9 186.4C874.6 187.1 874.2 188.1 874.4 189.5 875 190.9 876.5 191.2 877.5 191.1L908.8 178.6 902 193.9 888.6 199.4C887.2 199.6 886.9 201 887.1 202.5 887.6 203.4 889.2 204.2 890.6 203.5L899.3 200 894.9 211.2C894 212.3 894.7 213.6 896.2 214.4 897.3 214.8 898.6 214.1 899 213.1L903.9 201.9 907.4 211.1C908.1 212.5 909.6 212.8 910.5 212.2 911.9 212 912.3 211 912.2 210.1 912.1 209.6 912.1 209.6 912 209.1L906.5 195.8 913.4 180.4 925.8 211.3C926 212.7 927.5 213 928.9 212.9 929.8 212.3 930.2 211.3 930.1 210.3 930 209.8 930 209.8 930 209.8L916 173.8 921.3 161.6 926.1 173.6C926.7 174.9 927.8 175.3 929.2 175.1 930.1 174.5 930.9 173.5 930.8 172.5 930.7 172 930.7 172 930.7 171.6L923.8 155 929.1 142.7 937.2 153.4 935 171C934.7 172.5 935.8 173.8 936.8 174.2 938.2 174 939.6 173.4 939.4 171.9L941.3 159.2 949.8 169.7 944.3 208.1C944 209.1 945.1 210.4 946.1 210.8 947.5 210.6 948.9 210 949.2 208.5L953.9 175.5 963.7 188.8 961.6 203.1C961.3 204.6 962.4 205.9 963.8 205.7 964.9 206.1 966.2 205.4 966.5 204L967.8 194.1 975.2 203.9C975.8 204.8 977.3 205.1 978.7 204.4 979.1 203.9 979.5 202.9 979.3 201.9 979.3 201.9 979.3 201.4 979.2 201L971.8 191.2 981.6 192.5C982.6 192.8 983.9 191.7 984.3 190.7 984.2 190.2 984.2 190.2 984.2 190.2 984 188.8 983 187.9 982 188.1L967.7 185.9 957.4 172.7 990.9 177.3C992.3 177.1 993.2 176.5 993.5 175.1 993.5 175.1 993.4 174.6 993.4 174.6 993.3 173.6 992.7 172.7 991.2 172.4L953.3 166.9 945.3 156.2 958.1 158.1C959.5 157.9 960.9 157.3 960.7 155.8 961.2 155.8 961.1 155.3 961.1 155.3 961 154.3 959.9 153.5 958.9 153.1L941.2 150.9 933.1 139.8 946.5 138.2 960.4 149.1C961.4 149.9 963.3 149.7 964.2 148.6 964.5 147.6 964.4 146.2 963.8 145.3L953.1 137.4 967 135.7 996.9 159.2C997.9 160 999.4 159.8 1000.2 158.8 1001.1 157.7 1000.9 156.3 999.8 155.4L973.6 134.9 990.3 132.9 1001.5 141.7C1002.6 142.5 1004 142.3 1004.9 141.3S1005.5 138.8 1004.5 137.9L997 132.1 1008.9 130.6C1010.3 130.5 1011.2 129.4 1011 128 1010.8 126.5 1009.7 125.7 1008.3 125.9L996.4 127.3 1002.2 119.4C1002.6 118.8 1003 118.3 1003 117.8 1002.9 117.3 1002.3 116.4 1001.8 116 1000.7 115.2 999.3 115.4 998.5 116.4L989.7 128.1 973 130.2 993.5 103.5C993.9 103 994.3 102.4 994.3 101.9 994.2 101.5 993.6 100.6 993.1 100.2 992 99.3 990.6 99.5 989.8 100.6L966.4 131 952.6 132.6 961 122.4C961.4 121.9 961.3 120.9 961.2 120.5 961.2 120 961.1 119.5 960.6 119.1 959.5 118.3 957.6 118.5 957.3 119.5L945.9 133.4 932.5 135.1 937.8 122.3 954.4 116C955.3 115.4 956.1 114.3 956 113.4 956 112.9 956 112.9 955.5 112.9 955.3 111.5 953.8 110.7 952.4 111.4L940.4 116.2 945.6 103.5 981.6 89.5C982.5 88.9 982.9 87.9 982.8 86.9 982.7 86.4 982.7 86.4 982.7 86.4 982.1 85.1 981 84.2 979.6 84.9L948.3 97.4 955.1 82 968.5 76.6C969.8 75.9 970.2 74.9 970.1 73.9 970.1 73.9 970 73.5 970 73.5 969.4 72.1 967.9 71.8 966.9 71.9L957.8 75.9 962.7 64.7C962.6 64.2 962.6 63.7 962.5 63.3 962.5 62.8 961.9 61.9 961.3 61.5 959.8 61.2 958.4 61.3 958.1 62.8L953.2 74.1 949.6 64.8C949 63.4 947.5 63.1 946.6 63.3 945.2 63.9 944.9 65.4 945.1 66.8L950.5 80.2 944.2 95.5 931.7 64.6C931.1 63.2 929.5 62.4 928.6 63 927.3 63.7 926.4 64.7 927.1 66.1Z" fill="rgba(154, 205, 50, 0.11)"></path><path d="M678.1 124.8L669.9 118.9 676 115.9C676.7 115.7 677.1 114.7 676.8 113.8 676.2 113.1 675.3 112.7 674.6 112.9L666.6 116.7 659 111.3 675.4 103.7C676.4 103.1 676.8 102.2 676.3 101.5 676 100.5 675.1 100.1 674.1 100.7L656 109.1 649 104.3 650.7 84.9 657.4 81.6 674.7 94C675 94 675.3 94 675.6 94.1 675.9 94.1 676.6 93.8 676.9 93.5 677.7 92.6 677.4 91.6 676.5 91.2L660.8 79.9 669.1 76.2 677.3 81.7C677.3 82 677.6 82 677.9 82.1 678.6 82.1 679.2 81.8 679.6 81.2 680 80.6 679.7 79.6 679.2 78.9L672.5 74.5 682.8 69.6C683.5 69.4 683.9 68.4 683.7 67.5 683.1 66.8 682.2 66.4 681.5 66.6L671.8 71.3 672.4 64.6C672.4 63.6 671.5 62.9 670.9 62.8 669.9 62.7 668.9 63.3 668.9 64.3L668.1 72.9 659.8 76.6 661.3 58.8C661.4 57.8 660.8 57.1 659.8 57.1 658.9 57 658.2 57.6 658.1 58.5L656.4 78.3 649.4 81.9 633.3 70.5 633.9 63.2 652.3 54.5C653.3 54.3 653.8 53 653.2 52.3 652.9 51.3 652 51.2 651 51.5L634.3 59.4 635.1 50.1 643.4 46.3C644.1 46.1 644.5 44.8 644.2 44.2S642.7 43.1 641.7 43.3L635.4 46.3 636.3 35.1C636.4 34.2 635.5 33.5 634.6 33.4 633.9 33.3 632.9 33.9 632.8 34.8L631.9 46 625.8 41.9C625.2 41.6 624.2 41.5 623.5 42.4 623.1 43 623.4 44.3 624 44.7L631.6 49.8 630.8 59.1 615.6 48.5C614.7 48 613.7 48 613 48.9 612.6 49.5 612.8 50.8 613.5 51.2L630.4 62.9 629.8 70.2 612.1 78.7 605.7 73.9 607.4 54.2C607.5 53.2 606.9 52.5 606 52.4 605 52.4 604 52.9 603.9 53.9L602.4 71.7 594.8 66.6 595.5 58C595.6 57 595 56.3 594.1 56.2 593.1 56.2 592.4 56.7 592.3 57.7L591.8 64.4 583 58.2C582.4 57.8 581.1 58 580.7 58.6 580.3 59.6 580.2 60.5 581.1 60.9L590.2 67.5 583.2 70.7C582.5 71.3 582.1 72.2 582.4 72.9 582.6 73.6 583.2 73.9 583.9 74 583.9 74 584.2 74 584.5 73.7L593.6 69.7 601.1 74.8 583.7 83.3C582.7 83.5 582.3 84.5 582.9 85.5 583.2 85.8 583.5 86.2 584.1 86.2 584.4 86.2 584.7 86.3 585.1 86.3L604.2 77 610.2 81.4 608.6 100.8 600.9 104.4 584.5 93C583.6 92.3 582.6 92.5 582.2 93.4 581.5 94 581.8 95 582.7 95.7L597.5 106 589.1 110.1 581.9 105C581.2 104.6 580.3 104.8 579.6 105.4 579.2 106.3 579.1 107.3 580 107.7L585.5 111.7 576.4 116.1C575.4 116.3 575.3 117.3 575.6 118.2 575.9 118.6 576.5 119 577.1 119 577.1 119 577.4 119 577.8 119.1L587.5 114.4 586.8 122.4C586.7 123.1 587.3 124.1 588.2 124.1 589.2 124.2 589.9 123.3 590 122.7L590.8 112.8 599.2 108.7 597.5 128.2C597.5 129.1 598.4 129.8 599.3 129.9S601 129.4 601 128.5L602.9 107.1 609.9 103.8 625.9 115.2 625.2 123.5 606.5 132.1C605.8 132.7 605.4 133.7 605.7 134.6 605.9 135 606.6 135.4 607.2 135.4 607.5 135.4 607.8 135.5 608.2 135.2L624.9 127.3 624.1 136.5 615.7 140.6C615.1 140.9 614.7 141.8 614.9 142.8 615.5 143.5 616.4 143.9 617.1 143.6L623.8 140.4 622.9 150.6C622.9 151.2 623.7 152.2 624.4 152.3 625.3 152.4 626.4 151.5 626.4 150.9L627.3 140.7 633 145C633.3 145 633.7 145.1 634 145.1 634.6 145.1 635.3 144.9 635.6 144.6 636 143.7 635.8 142.7 635.2 142L627.6 136.8 628.4 127.6 643.6 138.2C644.5 138.9 645.5 138.7 645.8 138.1 646.5 137.2 646.3 136.2 645.7 135.5L628.7 123.8 629.5 115.5 647.2 107 653.6 111.4 651.7 132.8C651.7 133.8 652.2 134.5 653.2 134.5 654.2 134.6 654.8 134 654.9 133.1L656.6 113.6 664.2 119.1 663.3 129C663.3 129.6 664.1 130.7 665.1 130.7 666 130.8 666.8 129.9 666.8 129.3L667.5 121.3 676.3 127.5C676.6 127.5 676.6 127.5 676.9 127.6 677.6 127.6 678.2 127.4 678.6 127.1 679 126.1 678.7 125.2 678.1 124.8ZM629.8 111.7L627.8 112.4 626.3 111.4 613.3 102.2 611.7 101.1 611.9 99.2 613.2 83.6 613.4 81.7 615.1 80.8 629.5 74 631.2 73.2 633 74.3 645.7 83.5 647.5 84.6 647.4 86.5 646 102.1 645.9 104 643.9 104.8 629.8 111.7Z" fill="rgba(154, 205, 50, 0.11)"></path><path d="M777.6 391.7L778.4 366.1 785.4 359.9 785.1 368.5C784.8 369.4 785.6 370 786.5 370.3 787.2 370.2 788.1 369.5 788 368.8L788.7 356.9 795.3 350.6 797.2 359.6 790.7 369.6C790.7 369.6 790.7 369.9 790.7 369.9 790.5 370.5 790.9 371.3 791.4 371.8 792.3 372.1 793 372 793.6 371.2L798.2 363.9 800.1 372.9 786.7 394.5C786.7 394.5 786.3 394.7 786.3 394.7 786.1 395.3 786.6 396.1 787.1 396.6 787.9 397.2 789 396.9 789.3 396L801.1 377.2 803.8 388.1 798.5 396.5C798.5 396.5 798.5 396.5 798.4 396.8 798.2 397.4 798.3 398.1 798.9 398.6 799.8 398.9 800.8 398.9 801.4 398L804.8 392.4 806.7 400.4C806.7 401.4 807.6 401.7 808.3 401.5 809.3 401.5 809.9 400.7 809.6 399.6L808 391.7 813.3 395.4C814.2 395.6 815.2 395.6 815.5 394.7 816.1 393.9 815.9 393.2 815.1 392.6L806.7 387.3 804.4 376.5 823.4 388.5C824 389 825.1 388.6 825.6 387.8 825.8 387.2 825.8 386.2 825 385.6L803.4 372.2 801.4 363.2 808.7 367.8C809.5 368.4 810.4 368 810.9 367.2 811.4 366.7 811.1 365.5 810.6 365.1L800.4 358.9 798.2 349.8 807.1 352.6 812.6 363C813 363.8 813.9 364.1 814.7 363.6 815.4 363.5 815.8 362.3 815.4 361.5L811.4 353.9 820.2 356.6 831.9 379.4C832.4 380.2 833.3 380.5 834.1 380 834.9 379.6 835.2 378.7 834.8 377.9L824.5 358 834.9 361.2 839.5 370C840 370.8 840.9 371.1 841.7 370.7 842.5 370.2 842.8 369.3 842.3 368.5L839.5 362.6 847.1 365C848 365.3 848.8 364.8 849.1 363.9 849.4 363 849 362.2 848.1 361.9L840.4 359.6 846 356.6C846.8 356.2 847.1 355.3 846.7 354.5S845.4 353.4 844.6 353.8L836.2 358.2 825.5 354.9 845.1 344.6C845.9 344.2 846.2 343.2 845.7 342.4 845.3 341.6 844.4 341.4 843.6 341.8L821.2 353.6 812.3 350.8 819.9 346.8C820.7 346.4 821 345.5 820.6 344.7 820.2 343.9 819.2 343.6 818.4 344L808 349.5 799.5 346.9 806 340.9 818 341.2C818.7 341.1 819.6 340.4 819.5 339.7 819.4 338.6 818.9 338.2 818 337.9L809.4 337.5 816 331.5 841.5 332.4C842.5 332.4 843 331.9 843.3 331 843.2 329.9 842.4 329.4 841.8 329.2L819.3 328.2 827.7 320.8 837.3 321.1C838.2 321.3 838.8 320.5 839.1 319.6 839 318.9 838.2 318 837.2 318L830.9 317.8 836.7 312.2C837.5 311.7 837.5 310.7 836.7 309.8 836.2 309.3 835.2 309.4 834.7 309.9L828.7 315.4 829 308.8C829 307.8 828.2 307.2 827.5 307.3 826.6 307 826.1 307.5 825.9 308.1 825.8 308.5 825.8 308.5 825.7 308.8L825.4 318.4 817 325.8 817.9 303.7C818.2 302.7 817.4 302.2 816.4 301.9 815.7 302 815.2 302.5 815 303.1 815 303.4 815 303.4 815 303.4L813.7 329.2 807.1 335.2 807.4 326.6C807.4 325.5 806.9 325 806 324.8 805.3 324.9 804.5 325.3 804.3 325.9 804.2 326.2 804.2 326.2 804.1 326.5L803.8 338.5 797.2 344.5 795.2 335.8 801.4 325.7C801.9 324.8 801.6 323.7 801.1 323.2 800.2 323 799.2 323 798.9 323.9L794.3 331.2 792 322.4 805.8 300.6C806.3 300.1 806 299 805.4 298.5 804.5 298.2 803.5 298.2 802.9 299L791.1 317.8 788.7 307 793.9 298.9C794.5 298.1 794.2 297 793.3 296.7 792.7 296.2 791.7 296.2 791.1 297L787.7 302.7 785.8 294.7C785.7 294 784.9 293.4 783.9 293.5 783.5 293.7 783 294.2 782.8 294.8 782.8 294.8 782.7 295.1 782.6 295.4L784.5 303.4 778.8 299.9C778.3 299.4 777.2 299.8 776.7 300.3 776.6 300.6 776.6 300.6 776.6 300.6 776.3 301.5 776.8 302.3 777.4 302.5L785.5 307.7 788.1 318.6 769.1 306.6C768.2 306.3 767.4 306.5 766.9 307.3 766.9 307.3 766.8 307.6 766.8 307.6 766.6 308.2 766.7 308.9 767.5 309.5L789.1 323.2 791.1 331.9 783.8 327.3C782.9 327 781.8 327 781.6 327.9 781.3 327.8 781.2 328.1 781.2 328.1 781 328.7 781.4 329.5 781.9 330L792.1 336.2 794 345.2 785.4 342.5 779.9 332.1C779.5 331.3 778.3 330.9 777.5 331.3 777 331.9 776.7 332.8 776.8 333.5L781.1 341.2 772.3 338.4 760.5 316C760 315.2 759.1 314.9 758.3 315.3 757.5 315.8 757.2 316.7 757.7 317.5L768 337.1 757.3 333.8 752.9 325.4C752.4 324.6 751.5 324.3 750.7 324.7S749.6 326.1 750.1 326.9L753 332.5 745.4 330.1C744.5 329.8 743.7 330.2 743.4 331.2 743.1 332.1 743.5 332.9 744.4 333.2L752.1 335.5 746.4 338.8C746 339 745.6 339.2 745.5 339.5 745.4 339.8 745.5 340.5 745.7 340.9 746.1 341.7 747 342 747.8 341.6L756.3 336.8 767 340.2 747.3 350.8C746.9 351 746.5 351.2 746.4 351.5 746.3 351.8 746.5 352.5 746.7 352.9 747.1 353.7 748 354 748.8 353.6L771.3 341.5 780.2 344.2 772.3 348.2C771.9 348.4 771.7 349 771.6 349.3 771.5 349.6 771.4 349.9 771.6 350.3 772 351.1 773.3 351.5 773.8 351L784.5 345.6 793 348.2 786.4 354.5 774.5 353.9C773.8 354 773 354.4 772.8 355 772.7 355.3 772.7 355.3 773 355.4 772.8 356.3 773.5 357.2 774.5 357.2L783.1 357.5 776.5 363.9 750.7 362.6C750 362.7 749.5 363.2 749.3 363.8 749.2 364.1 749.2 364.1 749.2 364.1 749.3 365.1 749.7 365.9 750.7 365.9L773.2 366.9 764.8 374.3 755.2 374C754.2 374 753.7 374.6 753.5 375.2 753.5 375.2 753.4 375.5 753.4 375.5 753.4 376.5 754.3 377.1 754.9 377.3L761.6 377.3 755.5 382.8C755.4 383.1 755.3 383.4 755.2 383.7 755.1 384 755.2 384.7 755.5 385.1 756.3 385.7 757.2 386 757.8 385.2L763.8 379.7 763.5 386.3C763.5 387.3 764.3 387.9 764.9 388.1 765.9 388.1 766.5 387.2 766.8 386.3L767.1 376.7 775.2 369.1 774.3 391.3C774.3 392.3 775.1 393.2 775.8 393.1 776.8 393.1 777.6 392.7 777.6 391.7Z" fill="rgba(154, 205, 50, 0.11)"></path></g><defs><mask id="SvgjsMask1036"><rect width="1440" height="900" fill="#ffffff"></rect></mask><filter id="SvgjsFilter1037"><feGaussianBlur stdDeviation="1"></feGaussianBlur></filter></defs></svg>